<svg width="29" height="22" viewBox="0 0 29 22" fill="none" xmlns="http://www.w3.org/2000/svg">
<g filter="url(#filter0_d_3940_233)">
<path fill-rule="evenodd" clip-rule="evenodd" d="M23.9386 1.79175C23.9386 1.17043 23.4611 0.666748 22.872 0.666748H21.8053C21.2162 0.666748 20.7386 1.17043 20.7386 1.79175V11.5417C20.7386 12.1631 21.2162 12.6667 21.8053 12.6667H22.872C23.4611 12.6667 23.9386 12.1631 23.9386 11.5417V1.79175ZM16.5053 3.06675H17.5719C18.1611 3.06675 18.6386 3.58252 18.6386 4.21875V11.5147C18.6386 12.151 18.1611 12.6667 17.5719 12.6667H16.5053C15.9162 12.6667 15.4386 12.151 15.4386 11.5147V4.21875C15.4386 3.58252 15.9162 3.06675 16.5053 3.06675ZM12.172 5.66675H11.1053C10.5162 5.66675 10.0386 6.18908 10.0386 6.83341V11.5001C10.0386 12.1444 10.5162 12.6667 11.1053 12.6667H12.172C12.7611 12.6667 13.2386 12.1444 13.2386 11.5001V6.83341C13.2386 6.18908 12.7611 5.66675 12.172 5.66675ZM6.87195 8.06675H5.80528C5.21618 8.06675 4.73862 8.58162 4.73862 9.21675V11.5167C4.73862 12.1519 5.21618 12.6667 5.80528 12.6667H6.87195C7.46105 12.6667 7.93862 12.1519 7.93862 11.5167V9.21675C7.93862 8.58162 7.46105 8.06675 6.87195 8.06675Z" fill="white"/>
<path d="M22.872 1.16675C23.1602 1.16675 23.4386 1.42115 23.4386 1.79175H24.4386C24.4386 0.919703 23.7619 0.166748 22.872 0.166748V1.16675ZM21.8053 1.16675H22.872V0.166748H21.8053V1.16675ZM21.2386 1.79175C21.2386 1.42115 21.5171 1.16675 21.8053 1.16675V0.166748C20.9153 0.166748 20.2386 0.919703 20.2386 1.79175H21.2386ZM21.2386 11.5417V1.79175H20.2386V11.5417H21.2386ZM21.8053 12.1667C21.5171 12.1667 21.2386 11.9123 21.2386 11.5417H20.2386C20.2386 12.4138 20.9153 13.1667 21.8053 13.1667V12.1667ZM22.872 12.1667H21.8053V13.1667H22.872V12.1667ZM23.4386 11.5417C23.4386 11.9123 23.1602 12.1667 22.872 12.1667V13.1667C23.7619 13.1667 24.4386 12.4138 24.4386 11.5417H23.4386ZM23.4386 1.79175V11.5417H24.4386V1.79175H23.4386ZM17.5719 2.56675H16.5053V3.56675H17.5719V2.56675ZM19.1386 4.21875C19.1386 3.34331 18.4727 2.56675 17.5719 2.56675V3.56675C17.8494 3.56675 18.1386 3.82173 18.1386 4.21875H19.1386ZM19.1386 11.5147V4.21875H18.1386V11.5147H19.1386ZM17.5719 13.1667C18.4727 13.1667 19.1386 12.3902 19.1386 11.5147H18.1386C18.1386 11.9118 17.8494 12.1667 17.5719 12.1667V13.1667ZM16.5053 13.1667H17.5719V12.1667H16.5053V13.1667ZM14.9386 11.5147C14.9386 12.3902 15.6045 13.1667 16.5053 13.1667V12.1667C16.2279 12.1667 15.9386 11.9118 15.9386 11.5147H14.9386ZM14.9386 4.21875V11.5147H15.9386V4.21875H14.9386ZM16.5053 2.56675C15.6045 2.56675 14.9386 3.34331 14.9386 4.21875H15.9386C15.9386 3.82173 16.2279 3.56675 16.5053 3.56675V2.56675ZM11.1053 6.16675H12.172V5.16675H11.1053V6.16675ZM10.5386 6.83341C10.5386 6.42211 10.8336 6.16675 11.1053 6.16675V5.16675C10.1988 5.16675 9.53862 5.95606 9.53862 6.83341H10.5386ZM10.5386 11.5001V6.83341H9.53862V11.5001H10.5386ZM11.1053 12.1667C10.8336 12.1667 10.5386 11.9114 10.5386 11.5001H9.53862C9.53862 12.3774 10.1988 13.1667 11.1053 13.1667V12.1667ZM12.172 12.1667H11.1053V13.1667H12.172V12.1667ZM12.7386 11.5001C12.7386 11.9114 12.4437 12.1667 12.172 12.1667V13.1667C13.0784 13.1667 13.7386 12.3774 13.7386 11.5001H12.7386ZM12.7386 6.83341V11.5001H13.7386V6.83341H12.7386ZM12.172 6.16675C12.4437 6.16675 12.7386 6.42211 12.7386 6.83341H13.7386C13.7386 5.95606 13.0784 5.16675 12.172 5.16675V6.16675ZM5.80528 8.56675H6.87195V7.56675H5.80528V8.56675ZM5.23862 9.21675C5.23862 8.82168 5.52708 8.56675 5.80528 8.56675V7.56675C4.90528 7.56675 4.23862 8.34156 4.23862 9.21675H5.23862ZM5.23862 11.5167V9.21675H4.23862V11.5167H5.23862ZM5.80528 12.1667C5.52708 12.1667 5.23862 11.9118 5.23862 11.5167H4.23862C4.23862 12.3919 4.90528 13.1667 5.80528 13.1667V12.1667ZM6.87195 12.1667H5.80528V13.1667H6.87195V12.1667ZM7.43862 11.5167C7.43862 11.9118 7.15016 12.1667 6.87195 12.1667V13.1667C7.77195 13.1667 8.43862 12.3919 8.43862 11.5167H7.43862ZM7.43862 9.21675V11.5167H8.43862V9.21675H7.43862ZM6.87195 8.56675C7.15016 8.56675 7.43862 8.82168 7.43862 9.21675H8.43862C8.43862 8.34156 7.77195 7.56675 6.87195 7.56675V8.56675Z" fill="black"/>
</g>
<defs>
<filter id="filter0_d_3940_233" x="0.238617" y="0.166748" width="28.2" height="21" filterUnits="userSpaceOnUse" color-interpolation-filters="sRGB">
<feFlood flood-opacity="0" result="BackgroundImageFix"/>
<feColorMatrix in="SourceAlpha" type="matrix" values="0 0 0 0 0 0 0 0 0 0 0 0 0 0 0 0 0 0 127 0" result="hardAlpha"/>
<feOffset dy="4"/>
<feGaussianBlur stdDeviation="2"/>
<feComposite in2="hardAlpha" operator="out"/>
<feColorMatrix type="matrix" values="0 0 0 0 0 0 0 0 0 0 0 0 0 0 0 0 0 0 0.25 0"/>
<feBlend mode="normal" in2="BackgroundImageFix" result="effect1_dropShadow_3940_233"/>
<feBlend mode="normal" in="SourceGraphic" in2="effect1_dropShadow_3940_233" result="shape"/>
</filter>
</defs>
</svg>
