<svg width="19" height="14" viewBox="0 0 19 14" fill="none" xmlns="http://www.w3.org/2000/svg">
<path fill-rule="evenodd" clip-rule="evenodd" d="M9.83919 3.06735C12.3057 3.06745 14.678 3.96498 16.4656 5.57443C16.6002 5.69869 16.8154 5.69712 16.9479 5.57092L18.2347 4.3411C18.3018 4.27709 18.3393 4.19038 18.3387 4.10017C18.3382 4.00996 18.2997 3.92367 18.2317 3.86041C13.5398 -0.397806 6.1378 -0.397806 1.44589 3.86041C1.37792 3.92363 1.33936 4.00988 1.33873 4.1001C1.3381 4.19031 1.37546 4.27704 1.44255 4.3411L2.72968 5.57092C2.86218 5.69731 3.07751 5.69888 3.21204 5.57443C4.99988 3.96488 7.37239 3.06735 9.83919 3.06735ZM9.83742 7.17524C11.1835 7.17516 12.4816 7.67327 13.4794 8.57279C13.6143 8.70045 13.8269 8.69768 13.9585 8.56655L15.2351 7.28238C15.3024 7.21502 15.3397 7.12364 15.3387 7.02869C15.3377 6.93373 15.2986 6.84313 15.23 6.77715C12.1915 3.96328 7.48595 3.96328 4.44743 6.77715C4.3788 6.84313 4.33964 6.93378 4.33874 7.02876C4.33784 7.12375 4.37527 7.21512 4.44264 7.28238L5.71892 8.56655C5.85048 8.69768 6.06307 8.70045 6.19803 8.57279C7.19517 7.67386 8.4922 7.1758 9.83742 7.17524ZM12.3387 9.8944C12.3406 9.99694 12.3038 10.0958 12.2371 10.1676L10.0784 12.557C10.0151 12.6272 9.92883 12.6667 9.83882 12.6667C9.7488 12.6667 9.66252 12.6272 9.59924 12.557L7.44021 10.1676C7.37351 10.0958 7.33682 9.99686 7.3388 9.89431C7.34078 9.79177 7.38125 9.69466 7.45065 9.62592C8.82927 8.34702 10.8484 8.34702 12.227 9.62592C12.2963 9.69472 12.3367 9.79185 12.3387 9.8944Z" fill="white"/>
<path d="M16.4656 5.57443L16.8048 5.207L16.8001 5.20284L16.4656 5.57443ZM9.83919 3.06735L9.83921 2.56735L9.83919 2.56735L9.83919 3.06735ZM16.9479 5.57092L17.2927 5.93307L17.2934 5.93238L16.9479 5.57092ZM18.2347 4.3411L17.8897 3.97923L17.8892 3.97963L18.2347 4.3411ZM18.2317 3.86041L18.5726 3.49451L18.5678 3.49016L18.2317 3.86041ZM1.44589 3.86041L1.10983 3.49013L1.10536 3.49429L1.44589 3.86041ZM1.33873 4.1001L1.83872 4.10357L1.33873 4.1001ZM1.44255 4.3411L1.78796 3.97958L1.78785 3.97948L1.44255 4.3411ZM2.72968 5.57092L2.38427 5.93243L2.38456 5.9327L2.72968 5.57092ZM3.21204 5.57443L2.87747 5.2028L2.87251 5.20739L3.21204 5.57443ZM13.4794 8.57279L13.8231 8.20945L13.8142 8.20142L13.4794 8.57279ZM9.83742 7.17524L9.83739 6.67524L9.83721 6.67524L9.83742 7.17524ZM13.9585 8.56655L14.3115 8.92068L14.3131 8.91906L13.9585 8.56655ZM15.2351 7.28238L14.8813 6.92916L14.8805 6.92987L15.2351 7.28238ZM15.23 6.77715L15.5767 6.41674L15.5697 6.41029L15.23 6.77715ZM4.44743 6.77715L4.10764 6.41023L4.10091 6.4167L4.44743 6.77715ZM4.44264 7.28238L4.79729 6.92991L4.79591 6.92853L4.44264 7.28238ZM5.71892 8.56655L5.36427 8.91902L5.36594 8.92068L5.71892 8.56655ZM6.19803 8.57279L5.86314 8.20131L5.85443 8.20955L6.19803 8.57279ZM12.2371 10.1676L11.8707 9.82731L11.8661 9.83246L12.2371 10.1676ZM12.3387 9.8944L12.8386 9.88509L12.8386 9.88509L12.3387 9.8944ZM10.0784 12.557L9.70738 12.2218L9.70695 12.2223L10.0784 12.557ZM9.59924 12.557L9.97068 12.2223L9.97022 12.2218L9.59924 12.557ZM7.44021 10.1676L7.81122 9.8324L7.80677 9.8276L7.44021 10.1676ZM7.3388 9.89431L6.83889 9.88467L6.83889 9.88467L7.3388 9.89431ZM7.45065 9.62592L7.11061 9.25936L7.10462 9.26492L7.09882 9.27066L7.45065 9.62592ZM12.227 9.62592L12.5791 9.27092L12.5731 9.26504L12.567 9.25936L12.227 9.62592ZM16.8001 5.20284C14.9182 3.50844 12.4258 2.56746 9.83921 2.56735L9.83917 3.56735C12.1856 3.56745 14.4378 4.42152 16.131 5.94602L16.8001 5.20284ZM16.6032 5.20876C16.6353 5.17826 16.6729 5.16683 16.7039 5.16661C16.7348 5.16638 16.7725 5.17725 16.8047 5.20703L16.1265 5.94184C16.4545 6.24465 16.9689 6.24127 17.2927 5.93307L16.6032 5.20876ZM17.8892 3.97963L16.6025 5.20946L17.2934 5.93238L18.5802 4.70256L17.8892 3.97963ZM17.8387 4.10326C17.8384 4.05134 17.8602 4.00729 17.8897 3.97923L18.5798 4.70296C18.7434 4.54688 18.8401 4.32943 18.8387 4.09708L17.8387 4.10326ZM17.891 4.22628C17.8614 4.19875 17.839 4.15515 17.8387 4.10326L18.8387 4.09708C18.8373 3.86476 18.7379 3.6486 18.5725 3.49454L17.891 4.22628ZM1.78191 4.23066C6.28321 0.145443 13.3944 0.145443 17.8957 4.23066L18.5678 3.49016C13.6852 -0.941056 5.99239 -0.941056 1.10986 3.49016L1.78191 4.23066ZM1.83872 4.10357C1.83836 4.15546 1.81598 4.19903 1.78641 4.22653L1.10536 3.49429C0.939863 3.64822 0.840356 3.8643 0.838742 4.09662L1.83872 4.10357ZM1.78785 3.97948C1.81727 4.00758 1.83908 4.05165 1.83872 4.10357L0.838742 4.09662C0.837128 4.32897 0.933655 4.5465 1.09724 4.70271L1.78785 3.97948ZM3.0751 5.20941L1.78796 3.97958L1.09713 4.70261L2.38427 5.93243L3.0751 5.20941ZM2.87251 5.20739C2.90487 5.17745 2.94267 5.16653 2.97374 5.16675C3.00481 5.16698 3.04267 5.17847 3.07481 5.20913L2.38456 5.9327C2.70835 6.24158 3.22349 6.24496 3.55157 5.94147L2.87251 5.20739ZM9.83919 2.56735C7.2523 2.56735 4.7597 3.50833 2.8775 5.20283L3.54658 5.94603C5.24006 4.42142 7.49247 3.56735 9.83919 3.56735L9.83919 2.56735ZM13.8142 8.20142C12.7243 7.21891 11.3069 6.67515 9.83739 6.67524L9.83745 7.67524C11.0601 7.67517 12.2389 8.12763 13.1446 8.94416L13.8142 8.20142ZM13.6055 8.21243C13.6655 8.15262 13.7615 8.15142 13.823 8.20956L13.1358 8.93602C13.4672 9.24948 13.9884 9.24275 14.3115 8.92068L13.6055 8.21243ZM14.8805 6.92987L13.6039 8.21404L14.3131 8.91906L15.5897 7.63489L14.8805 6.92987ZM14.8387 7.03379C14.8383 6.9942 14.8539 6.95655 14.8813 6.92916L15.589 7.6356C15.7508 7.47348 15.841 7.25308 15.8387 7.02358L14.8387 7.03379ZM14.8833 7.13749C14.8555 7.11068 14.8391 7.07338 14.8387 7.03379L15.8387 7.02358C15.8363 6.79409 15.7417 6.57558 15.5766 6.41681L14.8833 7.13749ZM4.78717 7.144C7.63398 4.50766 12.0434 4.50766 14.8902 7.144L15.5697 6.41029C12.3395 3.4189 7.33791 3.4189 4.1077 6.41029L4.78717 7.144ZM4.83872 7.0335C4.83834 7.07324 4.82194 7.11069 4.79395 7.1376L4.10091 6.4167C3.93566 6.57557 3.84094 6.79431 3.83876 7.02402L4.83872 7.0335ZM4.79591 6.92853C4.8234 6.95599 4.83909 6.99376 4.83872 7.0335L3.83876 7.02402C3.83658 7.25373 3.92714 7.47425 4.08938 7.63622L4.79591 6.92853ZM6.07356 8.21409L4.79729 6.92992L4.088 7.63484L5.36427 8.91901L6.07356 8.21409ZM5.85443 8.20955C5.91588 8.15142 6.01189 8.15261 6.0719 8.21243L5.36594 8.92068C5.68906 9.24275 6.21026 9.24948 6.54163 8.93602L5.85443 8.20955ZM9.83721 6.67524C8.36868 6.67585 6.95238 7.21956 5.86324 8.20142L6.53282 8.94416C7.43796 8.12817 8.61573 7.67574 9.83762 7.67524L9.83721 6.67524ZM12.6034 10.508C12.7626 10.3366 12.8428 10.1105 12.8386 9.88509L11.8387 9.90371C11.8384 9.8834 11.845 9.85506 11.8707 9.82734L12.6034 10.508ZM10.4494 12.8922L12.6081 10.5028L11.8661 9.83246L9.70738 12.2218L10.4494 12.8922ZM9.83882 13.1667C10.0783 13.1667 10.2971 13.0612 10.4498 12.8917L9.70695 12.2223C9.73311 12.1933 9.77937 12.1667 9.83882 12.1667V13.1667ZM9.22781 12.8917C9.38053 13.0612 9.59933 13.1667 9.83882 13.1667V12.1667C9.89827 12.1667 9.94452 12.1933 9.97068 12.2223L9.22781 12.8917ZM7.06923 10.5029L9.22826 12.8922L9.97022 12.2218L7.81119 9.83243L7.06923 10.5029ZM6.83889 9.88467C6.83454 10.1101 6.91454 10.3362 7.07365 10.5077L7.80677 9.8276C7.83249 9.85532 7.8391 9.88364 7.83871 9.90395L6.83889 9.88467ZM7.09882 9.27066C6.93197 9.4359 6.84324 9.65924 6.83889 9.88467L7.83871 9.90396C7.83831 9.9243 7.83052 9.95343 7.80249 9.98119L7.09882 9.27066ZM12.567 9.25936C10.9966 7.80254 8.68101 7.80254 7.11061 9.25936L7.7907 9.99248C8.97752 8.8915 10.7001 8.8915 11.8869 9.99248L12.567 9.25936ZM12.8386 9.88509C12.8344 9.65966 12.7458 9.43627 12.5791 9.27092L11.8749 9.98093C11.8469 9.95317 11.8391 9.92405 11.8387 9.90371L12.8386 9.88509Z" fill="black"/>
</svg>
